<?xml version="1.0" encoding="utf-8"?>
<!-- Generator: Adobe Illustrator 17.0.0, SVG Export Plug-In . SVG Version: 6.00 Build 0)  -->
<!DOCTYPE svg PUBLIC "-//W3C//DTD SVG 1.1//EN" "http://www.w3.org/Graphics/SVG/1.1/DTD/svg11.dtd">
<svg version="1.1" id="_x38_13c2686-e70f-4fb0-bf6b-a2eb7b1db384"
	 xmlns="http://www.w3.org/2000/svg" xmlns:xlink="http://www.w3.org/1999/xlink" x="0px" y="0px" width="1121.04px"
	 height="851.8px" viewBox="0 0 1121.04 851.8" enable-background="new 0 0 1121.04 851.8" xml:space="preserve">
<title>interaction design</title>
<g id="_x30_22---India-Location-Pin">
	<path id="Shape" fill="#545454" d="M472.251,257.638c0,28.578,23.167,51.744,51.744,51.744c28.578,0,51.744-23.167,51.744-51.744
		s-23.167-51.744-51.744-51.744C495.418,205.893,472.251,229.06,472.251,257.638z M549.867,257.638
		c0,14.289-11.583,25.872-25.872,25.872c-14.289,0-25.872-11.583-25.872-25.872c0-14.289,11.583-25.872,25.872-25.872
		C538.284,231.766,549.867,243.349,549.867,257.638z"/>
	<path id="Shape_1_" fill="#545454" d="M294.768,368.759l-8.926,8.926c-5.505,5.528-8.222,13.246-7.394,21.004
		c0.828,7.758,5.114,14.728,11.662,18.969l24.061,16.558c-7.331,2.442-13.186,8.032-15.965,15.242
		c-2.779,7.21-2.19,15.284,1.606,22.014c10.903,14.444,26.426,24.716,43.983,29.106c9.74,4.365,20.884,4.342,30.606-0.061
		s17.089-12.765,20.233-22.965l4.786,4.786c0,24.449,3.751,107.887,27.166,155.233c25.872,50.709,63.387,101.936,63.387,136.217
		c-1.075,10.609,2.546,21.157,9.91,28.869c7.364,7.712,17.734,11.816,28.381,11.233c11.331,1.331,22.287-4.56,27.424-14.747
		c9.185-20.051,24.837-6.08,37.903-23.544c3.979-5.334,5.571-12.078,4.398-18.628c0.176-12.72,3.228-25.235,8.926-36.609
		c14.747-38.808,19.145-59.765,0-108.016c43.465-28.977,79.816-68.173,147.989-136.217c12.031-11.901,3.751-25.872,16.041-37.773
		c4.26-0.949,8.676-0.949,12.936,0c9.223,0.282,18.025-3.865,23.679-11.157c5.654-7.292,7.479-16.849,4.91-25.711
		c-8.158-19.697-19.817-37.754-34.41-53.297l-4.01-2.975l11.901-10.22c0,0,0-1.035,0-1.294l16.817,10.478
		c6.399,3.219,13.847,3.64,20.568,1.164l11.384-5.692l-7.115,20.31c-2.813,11.48,2.511,23.407,12.936,28.977l29.365,19.145
		c6.627,3.826,14.608,4.522,21.797,1.9c7.189-2.621,12.849-8.29,15.459-15.483c6.986-19.533,23.285-68.303,23.285-99.09
		c0-16.558,16.946-23.156,27.036-25.872c11.295-2.978,19.194-13.156,19.275-24.837v-23.285c1.089-11.889-3.75-23.551-12.936-31.176
		c-12.289-9.961-43.077-20.31-80.333,4.398c-40.878,27.295-38.808,64.034-71.148,74.771c-1.391,0.429-2.878,0.429-4.269,0
		c-5.821-2.975-10.608-24.32-15.006-35.186c-3.186-7.874-10.033-13.682-18.321-15.541c-8.288-1.859-16.96,0.468-23.204,6.227
		l-18.628,16.041c-7.906,7.861-9.887,19.903-4.916,29.882c0.776,1.423,1.164,1.811,7.115,10.09l-15.782,15.523l-20.439-6.08
		c-12.005-3.704-24.935,1.752-30.659,12.936c-0.856,1.566-2.787,2.191-4.398,1.423l-30.659-16.688
		c4.384-11.101,6.834-22.87,7.244-34.798c-0.792-54.054-39.697-100.004-92.881-109.698c5.739-9.142,12.703-17.455,20.698-24.708
		c9.253-8.64,10.895-22.707,3.881-33.246l-12.936-19.663c-7.237-10.869-21.439-14.642-33.116-8.797L492.69,73.557l-28.459-28.33
		c-4.755-4.718-11.154-7.407-17.852-7.503H401.62c-8.63,0.016-16.684,4.334-21.474,11.513l-14.876,22.121
		c-3.848,5.733-5.245,12.765-3.881,19.533c2.587,12.936,9.314,15.135,29.624,29.106l-1.552,2.975
		c-5.602,11.235-2.329,24.871,7.762,32.34l37.127,27.166c-9.154,10.686-16.179,23.025-20.698,36.35l-44.241,59.894l-7.632-4.916
		c-11.794-6.794-26.835-3.288-34.41,8.02c-0.776,1.035-1.035,1.811-14.359,27.942c-5.462,8.513-5.462,19.429,0,27.942l21.991,28.718
		l-16.17-4.786C310.118,359.707,301.024,362.396,294.768,368.759L294.768,368.759z M614.548,253.239
		c0,25.872-31.435,84.602-83.955,156.527c-1.511,2.061-3.913,3.278-6.468,3.278s-4.957-1.217-6.468-3.278
		c-52.262-71.925-84.214-130.525-84.214-156.527c0.576-23.435,10.442-45.681,27.425-61.839
		c16.984-16.159,39.692-24.905,63.127-24.315c23.435-0.591,46.144,8.156,63.127,24.315S613.972,229.804,614.548,253.239z
		 M523.995,477.551c-18.454-0.065-35.476-9.953-44.675-25.951c-9.199-15.998-9.181-35.684,0.046-51.666
		c5.951,8.538,11.901,16.817,17.722,24.708c6.392,8.626,16.494,13.713,27.23,13.713c10.736,0,20.838-5.087,27.23-13.713
		c5.563-7.762,11.513-15.911,17.334-24.32c9.053,15.997,8.939,35.595-0.297,51.487C559.35,467.701,542.376,477.5,523.995,477.551z
		 M405.501,98.524l-18.757-12.936l14.876-21.991h44.759l28.459,28.33c7.892,7.862,19.93,9.79,29.882,4.786l33.246-16.429
		l12.936,19.404c-13.138,11.58-23.789,25.707-31.305,41.525c-23.83,0.739-46.859,8.777-65.974,23.026l-40.878-29.753l1.423-2.975
		C419.961,119.898,416.254,105.789,405.501,98.524z M355.826,381.953c6.469-8.789,6.728-20.691,0.647-29.753
		c-24.061-31.823-21.603-28.071-20.698-29.882l12.936-25.872l7.503,4.916c11.578,6.654,26.317,3.403,34.022-7.503l19.275-25.872
		c6.209,29.882,28.718,70.631,54.073,109.31c-25.63,31.686-22.388,77.798,7.423,105.587c29.811,27.789,76.036,27.789,105.847,0
		s33.053-73.9,7.423-105.587c14.35-21.353,27.312-43.606,38.808-66.621l28.33,15.394c14.34,7.598,32.124,2.303,39.973-11.901
		l20.698,6.209c8.772,2.492,18.208,0.182,24.837-6.08l17.205-15.006c8.394-8.443,9.942-21.524,3.751-31.693l-5.951-8.279
		l17.852-14.618c5.692,14.23,9.185,39.455,27.166,48.64c7.758,3.609,16.675,3.797,24.579,0.517
		c44.759-14.747,41.396-53.685,77.617-77.617c24.708-16.429,43.207-10.996,49.545-5.951c3.493,2.846,2.717,3.363,3.105,34.798
		c-29.365,6.986-46.829,25.872-46.829,50.709c0,27.424-16.688,75.935-21.862,90.553l-28.589-18.628
		c-1.294-1.035-4.269,8.02,5.433-19.792c2.282-9.262-0.718-19.028-7.805-25.413s-17.113-8.351-26.087-5.117l-11.125,4.398
		l-15.782-9.961c-9.62-4.802-21.207-3.154-29.106,4.14l-12.936,10.996c-9.272,9.17-10.27,23.808-2.328,34.151
		c13.501,14.074,24.64,30.237,32.987,47.864c-0.087,1.338-0.69,2.59-1.682,3.493c-11.67-2.795-23.978-0.181-33.505,7.115
		c-9.807,10.372-15.587,23.905-16.299,38.161c-63.904,63.646-103.489,105.947-144.108,132.983
		c-9.7,6.559-13.785,18.815-9.961,29.882c6.929,15.504,10.837,32.188,11.513,49.157c0,28.977-25.872,60.8-21.345,90.553
		c-17.411,0.965-32.785,11.681-39.714,27.683c-12.936,1.682-16.558-2.717-16.558-14.618c0-43.206-39.843-95.339-66.103-147.73
		c-21.474-42.948-24.19-127.162-24.449-143.591c-0.229-6.58-2.959-12.826-7.632-17.464l-4.786-4.786
		c-6.252-6.229-15.249-8.842-23.865-6.93c-8.616,1.912-15.664,8.084-18.695,16.373c-2.975,7.762-6.727,11.254-18.628,7.244
		c-11.359-2.678-21.668-8.666-29.624-17.205c9.52-3.111,16.389-11.437,17.635-21.375s-3.356-19.702-11.814-25.066l-24.061-16.946
		l8.408-9.055l16.299,4.786C338.934,394.181,349.602,390.353,355.826,381.953L355.826,381.953z"/>
</g>
</svg>
